<svg xmlns="http://www.w3.org/2000/svg" width="1600" height="857" viewBox="0 0 1600 857">
  <rect width="1600" height="857" fill="#f2f7ef"/>
  <text x="95" y="105" fill="#0b3228" font-family="monospace" font-size="28">ANCHOR / DEPLOYED TRUST BOUNDARIES</text>
  <text x="95" y="178" fill="#071d16" font-family="monospace" font-size="56" font-weight="700">ONE WORKFLOW. FOUR PROOF SYSTEMS.</text>
  <g font-family="monospace">
    <g transform="translate(95 255)"><rect width="330" height="370" rx="16" fill="#fff" stroke="#174b3d" stroke-width="3"/><text x="28" y="65" fill="#174b3d" font-size="28" font-weight="700">SUPABASE</text><text x="28" y="105" fill="#527268" font-size="20">POSTGRESQL</text><text x="28" y="175" fill="#071d16" font-size="20">Business truth</text><text x="28" y="216" fill="#071d16" font-size="20">Exact-money books</text><text x="28" y="257" fill="#071d16" font-size="20">Workflow + journals</text><text x="28" y="324" fill="#2a7f64" font-size="18">TLS verify-full</text></g>
    <g transform="translate(455 255)"><rect width="330" height="370" rx="16" fill="#fff" stroke="#174b3d" stroke-width="3"/><text x="28" y="65" fill="#174b3d" font-size="28" font-weight="700">MINIO</text><text x="28" y="105" fill="#527268" font-size="20">PRIVATE S3 STORAGE</text><text x="28" y="175" fill="#071d16" font-size="20">Agreements</text><text x="28" y="216" fill="#071d16" font-size="20">Identity evidence</text><text x="28" y="257" fill="#071d16" font-size="20">Deliverable bytes</text><text x="28" y="324" fill="#2a7f64" font-size="18">No public admin port</text></g>
    <g transform="translate(815 255)"><rect width="330" height="370" rx="16" fill="#fff" stroke="#174b3d" stroke-width="3"/><text x="28" y="65" fill="#174b3d" font-size="28" font-weight="700">FABRIC</text><text x="28" y="105" fill="#527268" font-size="20">PRIVATE WORK PROOF</text><text x="28" y="175" fill="#071d16" font-size="20">SHA-256 evidence</text><text x="28" y="216" fill="#071d16" font-size="20">Version + ownership</text><text x="28" y="257" fill="#071d16" font-size="20">Buyer decision</text><text x="28" y="324" fill="#2a7f64" font-size="18">No file bytes / PII</text></g>
    <g transform="translate(1175 255)"><rect width="330" height="370" rx="16" fill="#fff" stroke="#174b3d" stroke-width="3"/><text x="28" y="65" fill="#174b3d" font-size="28" font-weight="700">ALGORAND</text><text x="28" y="105" fill="#527268" font-size="20">PUBLIC SETTLEMENT</text><text x="28" y="175" fill="#071d16" font-size="20">ARC-4 escrow</text><text x="28" y="216" fill="#071d16" font-size="20">Provider accounts</text><text x="28" y="257" fill="#071d16" font-size="20">Release commitment</text><text x="28" y="324" fill="#2a7f64" font-size="18">Circle TestNet USDC</text></g>
  </g>
  <rect x="95" y="688" width="1410" height="92" rx="12" fill="#0b3228"/>
  <text x="130" y="744" fill="#caff2c" font-family="monospace" font-size="23">SECURITY CHOICE:</text><text x="385" y="744" fill="#f7f7ef" font-family="monospace" font-size="23">MinIO and every backend service stay private behind Caddy.</text>
</svg>
